<svg width="357" height="27" viewBox="0 0 357 27" fill="none" xmlns="http://www.w3.org/2000/svg">
<path d="M14.2656 23.7969L0.96875 18.0156V14.7344L14.2656 8.96875V12.9844L6 16.1562L5.04688 16.375V16.4688L6 16.6875L14.2656 19.7812V23.7969ZM55.0312 23.9688V20L63.4688 16.7969L64.5 16.5781V16.4844L63.4688 16.2188L55.0312 13.1094V9.15625L68.5938 14.9062V18.2031L55.0312 23.9688ZM290.078 23.7969L276.781 18.0156V14.7344L290.078 8.96875V12.9844L281.812 16.1562L280.859 16.375V16.4688L281.812 16.6875L290.078 19.7812V23.7969ZM291.375 26.9531L300.781 2.25H304.641L295.234 26.9531H291.375ZM343.375 23.9688V20L351.812 16.7969L352.844 16.5781V16.4844L351.812 16.2188L343.375 13.1094V9.15625L356.938 14.9062V18.2031L343.375 23.9688Z" fill="#808080"/>
<path d="M28.2656 25V14.6875C28.2656 13.7083 28.0365 12.9583 27.5781 12.4375C27.1198 11.9062 26.474 11.6406 25.6406 11.6406C23.3281 11.6406 22.1719 13.1458 22.1719 16.1562L21.2031 11.4375H22.5469C22.6719 10.3229 23.0573 9.49479 23.7031 8.95312C24.3594 8.40104 25.3333 8.125 26.625 8.125C28.375 8.125 29.7292 8.65625 30.6875 9.71875C31.6458 10.7812 32.125 12.2812 32.125 14.2188V25H28.2656ZM18.3125 25V1.5625H22.1719V25H18.3125ZM42.5469 25V2.8125H46.3281V25H42.5469ZM37.0938 25V21.625H42.8594V25H37.0938ZM46.0156 25V21.625H51.1875V25H46.0156ZM37.4062 8.3125V4.6875L42.5469 2.8125V6.5L37.4062 8.3125ZM316.609 25V14.6875C316.609 13.7083 316.38 12.9583 315.922 12.4375C315.464 11.9062 314.818 11.6406 313.984 11.6406C311.672 11.6406 310.516 13.1458 310.516 16.1562L309.547 11.4375H310.891C311.016 10.3229 311.401 9.49479 312.047 8.95312C312.703 8.40104 313.677 8.125 314.969 8.125C316.719 8.125 318.073 8.65625 319.031 9.71875C319.99 10.7812 320.469 12.2812 320.469 14.2188V25H316.609ZM306.656 25V1.5625H310.516V25H306.656ZM330.891 25V2.8125H334.672V25H330.891ZM325.438 25V21.625H331.203V25H325.438ZM334.359 25V21.625H339.531V25H334.359ZM325.75 8.3125V4.6875L330.891 2.8125V6.5L325.75 8.3125Z" fill="#569CD6"/>
<path d="M80.8594 25L75.7656 7.84375H74.1719V2.8125H77.0156L82.1094 19.9688H83.0469V25H80.8594ZM71.7188 25V2.8125H75.2969V25H71.7188ZM82.5781 25V2.8125H86.1562V25H82.5781ZM97.1562 16.7188L97.625 12.5781H97.8125L99.7969 2.8125H102.062L102.219 6.75H101.266L99.125 16.7188H97.1562ZM90.1562 25V2.8125H93.6562V25H90.1562ZM96.25 16.7188L94.1094 6.75H93.1562L93.3125 2.8125H95.5781L97.5625 12.5781H97.6875L98.0781 16.7188H96.25ZM101.719 25V2.8125H105.219V25H101.719ZM116.438 25.3125C114.094 25.3125 112.271 24.5625 110.969 23.0625C109.677 21.5625 109.031 19.4479 109.031 16.7188C109.031 13.9792 109.677 11.8646 110.969 10.375C112.271 8.875 114.094 8.125 116.438 8.125C118.792 8.125 120.615 8.875 121.906 10.375C123.198 11.8646 123.844 13.9792 123.844 16.7188C123.844 19.4479 123.198 21.5625 121.906 23.0625C120.615 24.5625 118.792 25.3125 116.438 25.3125ZM116.438 21.7188C117.51 21.7188 118.333 21.2865 118.906 20.4219C119.49 19.5469 119.781 18.3125 119.781 16.7188C119.781 15.1146 119.49 13.8802 118.906 13.0156C118.333 12.151 117.51 11.7188 116.438 11.7188C115.375 11.7188 114.552 12.151 113.969 13.0156C113.385 13.8802 113.094 15.1146 113.094 16.7188C113.094 18.3125 113.385 19.5469 113.969 20.4219C114.552 21.2865 115.375 21.7188 116.438 21.7188ZM136.984 25.3125C134.047 25.3125 131.776 24.5729 130.172 23.0938C128.578 21.6042 127.781 19.4688 127.781 16.6875C127.781 13.9792 128.521 11.875 130 10.375C131.479 8.875 133.594 8.125 136.344 8.125C138.021 8.125 139.453 8.44792 140.641 9.09375C141.839 9.72917 142.688 10.6302 143.188 11.7969L140.328 14.0312C139.87 13.2917 139.281 12.724 138.562 12.3281C137.854 11.9219 137.073 11.7188 136.219 11.7188C134.823 11.7188 133.74 12.1354 132.969 12.9688C132.198 13.8021 131.812 14.9896 131.812 16.5312C131.812 18.2188 132.292 19.5052 133.25 20.3906C134.208 21.276 135.578 21.7188 137.359 21.7188C138.12 21.7188 138.875 21.6823 139.625 21.6094C140.385 21.5365 141.125 21.4375 141.844 21.3125L142.25 24.8438C141.406 25.0312 140.531 25.1562 139.625 25.2188C138.719 25.2812 137.839 25.3125 136.984 25.3125ZM156.984 25V14.6875C156.984 13.7083 156.755 12.9583 156.297 12.4375C155.839 11.9062 155.193 11.6406 154.359 11.6406C152.047 11.6406 150.891 13.1458 150.891 16.1562L149.922 11.4375H151.266C151.391 10.3229 151.776 9.49479 152.422 8.95312C153.078 8.40104 154.052 8.125 155.344 8.125C157.094 8.125 158.448 8.65625 159.406 9.71875C160.365 10.7812 160.844 12.2812 160.844 14.2188V25H156.984ZM147.031 25V1.5625H150.891V25H147.031ZM174.203 25.3125C171.359 25.3125 169.161 24.5729 167.609 23.0938C166.057 21.6042 165.281 19.4688 165.281 16.6875C165.281 13.9792 165.938 11.875 167.25 10.375C168.573 8.875 170.432 8.125 172.828 8.125C175.141 8.125 176.927 8.8125 178.188 10.1875C179.458 11.5625 180.094 13.5573 180.094 16.1719C180.094 16.9323 180.062 17.6458 180 18.3125H168.062V15.5312H176.406C176.406 14.2708 176.094 13.3021 175.469 12.625C174.844 11.9479 173.974 11.6094 172.859 11.6094C171.641 11.6094 170.693 12.0365 170.016 12.8906C169.339 13.7448 169 14.9583 169 16.5312C169 18.2292 169.484 19.526 170.453 20.4219C171.422 21.3073 172.797 21.75 174.578 21.75C175.307 21.75 176.021 21.7135 176.719 21.6406C177.427 21.5573 178.146 21.4479 178.875 21.3125L179.281 24.875C178.26 25.0625 177.323 25.1823 176.469 25.2344C175.615 25.2865 174.859 25.3125 174.203 25.3125ZM190.578 17.875L189.609 12.375H190.984C191.161 9.54167 192.615 8.125 195.344 8.125C196.969 8.125 198.188 8.66667 199 9.75C199.812 10.8333 200.219 12.4688 200.219 14.6562H196.391C196.391 13.5833 196.208 12.8125 195.844 12.3438C195.49 11.875 194.911 11.6406 194.109 11.6406C192.922 11.6406 192.036 12.1823 191.453 13.2656C190.87 14.349 190.578 15.8854 190.578 17.875ZM183.156 25V21.7344H194.531V25H183.156ZM186.734 25V8.4375H189.953L190.578 13.1875V25H186.734ZM183.781 11.7031V8.4375H189.734L190.047 11.7031H183.781ZM213.234 25V14.8438C213.234 13.8438 213.005 13.0729 212.547 12.5312C212.089 11.9896 211.443 11.7188 210.609 11.7188C208.297 11.7188 207.141 13.25 207.141 16.3125L206.172 11.4375H207.516C207.641 10.3229 208.026 9.49479 208.672 8.95312C209.328 8.40104 210.302 8.125 211.594 8.125C213.344 8.125 214.698 8.65625 215.656 9.71875C216.615 10.7812 217.094 12.2812 217.094 14.2188V25H213.234ZM203.281 25V8.4375H206.75L207.141 11.9375V25H203.281ZM228.109 25V9.375H231.953V25H228.109ZM221.906 25V21.5625H228.422V25H221.906ZM231.641 25V21.5625H236.938V25H231.641ZM222.844 11.875V8.4375H231.953V11.875H222.844ZM229.875 6.04688C229.135 6.04688 228.526 5.80729 228.047 5.32812C227.568 4.84896 227.328 4.23958 227.328 3.5C227.328 2.76042 227.568 2.15104 228.047 1.67188C228.526 1.19271 229.135 0.953125 229.875 0.953125C230.615 0.953125 231.224 1.19271 231.703 1.67188C232.182 2.15104 232.422 2.76042 232.422 3.5C232.422 4.23958 232.182 4.84896 231.703 5.32812C231.224 5.80729 230.615 6.04688 229.875 6.04688ZM245.594 25.3125C243.948 25.3125 242.677 24.7969 241.781 23.7656C240.885 22.724 240.438 21.2604 240.438 19.375V8.4375H244.297V18.75C244.297 19.6979 244.536 20.4323 245.016 20.9531C245.495 21.4635 246.156 21.7188 247 21.7188C248.083 21.7188 248.896 21.3385 249.438 20.5781C249.99 19.8073 250.266 18.5208 250.266 16.7188L251.109 21.8125H249.906C249.646 22.9375 249.135 23.8021 248.375 24.4062C247.625 25.0104 246.698 25.3125 245.594 25.3125ZM250.547 25.1562L250.266 21.1875V18.2812H254.125V21.5312L256.406 21.875V25L250.547 25.1562ZM250.266 20.3125V8.4375H254.125V19.375L250.266 20.3125ZM261.906 18.9531V15.3594H263.781C265.073 15.3594 266.135 15.1354 266.969 14.6875C267.802 14.2396 268.458 13.5104 268.938 12.5C269.417 11.4792 269.766 10.125 269.984 8.4375H273.969C273.531 11.9688 272.531 14.6042 270.969 16.3438C269.417 18.0833 267.281 18.9531 264.562 18.9531H261.906ZM259.406 25V1.5625H263.266V25H259.406ZM270.391 25L266.062 16.9375L269.578 15.6562L275.031 25H270.391Z" fill="#F6EFEF"/>
</svg>
